<svg width="11" height="11" viewBox="0 0 11 11" fill="none" xmlns="http://www.w3.org/2000/svg">
<path d="M1.13083 1.13083C1.28942 0.972248 1.53758 0.957831 1.71245 1.08758L1.76255 1.13083L5.61581 4.98389L9.46907 1.13083C9.62766 0.972248 9.87581 0.957831 10.0507 1.08758L10.1008 1.13083C10.2594 1.28942 10.2738 1.53758 10.144 1.71245L10.1008 1.76255L5.93167 5.93167C5.77308 6.09025 5.52492 6.10467 5.35005 5.97492L5.29995 5.93167L1.13083 1.76255C0.956389 1.58811 0.956389 1.30528 1.13083 1.13083Z" fill="white" stroke="white" stroke-width="0.5"/>
<path d="M1.13083 5.06833C1.28942 4.90975 1.53758 4.89533 1.71245 5.02508L1.76255 5.06833L5.61581 8.92139L9.46907 5.06833C9.62766 4.90975 9.87581 4.89533 10.0507 5.02508L10.1008 5.06833C10.2594 5.22692 10.2738 5.47508 10.144 5.64995L10.1008 5.70005L5.93167 9.86917C5.77308 10.0278 5.52492 10.0422 5.35005 9.91242L5.29995 9.86917L1.13083 5.70005C0.956389 5.52561 0.956389 5.24278 1.13083 5.06833Z" fill="white" stroke="white" stroke-width="0.5"/>
</svg>
